{
    "asset" : {
        "generator" : "Khronos glTF Blender I/O v1.0.5",
        "version" : "2.0"
    },
    "scene" : 0,
    "scenes" : [
        {
            "name" : "Scene",
            "nodes" : [
                0
            ]
        }
    ],
    "nodes" : [
        {
            "mesh" : 0,
            "name" : "Clavicle_lowpoly",
            "translation" : [
                1,
                1,
                -1
            ]
        }
    ],
    "materials" : [
        {
            "doubleSided" : true,
            "name" : "Material.001",
            "normalTexture" : {
                "index" : 0,
                "texCoord" : 0
            },
            "pbrMetallicRoughness" : {
                "baseColorFactor" : [
                    0.800000011920929,
                    0.800000011920929,
                    0.800000011920929,
                    1
                ],
                "metallicFactor" : 0,
                "roughnessFactor" : 0.5
            }
        }
    ],
    "meshes" : [
        {
            "name" : "Clavicle.001",
            "primitives" : [
                {
                    "attributes" : {
                        "POSITION" : 0,
                        "NORMAL" : 1,
                        "TEXCOORD_0" : 2
                    },
                    "indices" : 3,
                    "material" : 0
                }
            ]
        }
    ],
    "textures" : [
        {
            "source" : 0
        }
    ],
    "images" : [
        {
            "bufferView" : 4,
            "mimeType" : "image/png",
            "name" : "NormalMap_Clavicle"
        }
    ],
    "accessors" : [
        {
            "bufferView" : 0,
            "componentType" : 5126,
            "count" : 2132,
            "max" : [
                48.507476806640625,
                43.799278259277344,
                33.1204833984375
            ],
            "min" : [
                -81.22991943359375,
                -16.72454833984375,
                -6.143772602081299
            ],
            "type" : "VEC3"
        },
        {
            "bufferView" : 1,
            "componentType" : 5126,
            "count" : 2132,
            "type" : "VEC3"
        },
        {
            "bufferView" : 2,
            "componentType" : 5126,
            "count" : 2132,
            "type" : "VEC2"
        },
        {
            "bufferView" : 3,
            "componentType" : 5123,
            "count" : 8814,
            "type" : "SCALAR"
        }
    ],
    "bufferViews" : [
        {
            "buffer" : 0,
            "byteLength" : 25584,
            "byteOffset" : 0
        },
        {
            "buffer" : 0,
            "byteLength" : 25584,
            "byteOffset" : 25584
        },
        {
            "buffer" : 0,
            "byteLength" : 17056,
            "byteOffset" : 51168
        },
        {
            "buffer" : 0,
            "byteLength" : 17628,
            "byteOffset" : 68224
        },
        {
            "buffer" : 0,
            "byteLength" : 2876166,
            "byteOffset" : 85852
        }
    ],
    "buffers" : [
        {
            "byteLength" : 2962020,
            "uri" : "data:application/octet-stream;base64,"
        }
    ]
}
